inDegrees=no
num_controls=7
num_derivatives=13
num_iterations=157
num_multipliers=7
num_parameters=0
num_slacks=7
num_states=26
objective=0.430937
objective_accelerations=0.050918
objective_balance=0.006994
objective_effort=0.031449
objective_height=0.340428
objective_ligament=0.001149
solver_duration=2228.679848
status=Solve_Succeeded
success=true
DataType=double
version=3
OpenSimVersion=4.5
endheader
time	/jointset/ground_pelvis/pelvis_tilt/value	/jointset/ground_pelvis/pelvis_tx/value	/jointset/ground_pelvis/pelvis_ty/value	/jointset/hip_l/hip_flexion_l/value	/jointset/hip_l/hip_adduction_l/value	/jointset/hip_l/hip_rotation_l/value	/jointset/back/lumbar_extension/value	/jointset/patellofemoral_l/patellar_flexion_l/value	/jointset/knee_l/knee_flexion_l/value	/jointset/knee_l/knee_adduction_l/value	/jointset/knee_l/knee_rotation_l/value	/jointset/ankle_l/ankle_angle_l/value	/jointset/subtalar_l/subtalar_angle_l/value	/jointset/ground_pelvis/pelvis_tilt/speed	/jointset/ground_pelvis/pelvis_tx/speed	/jointset/ground_pelvis/pelvis_ty/speed	/jointset/hip_l/hip_flexion_l/speed	/jointset/hip_l/hip_adduction_l/speed	/jointset/hip_l/hip_rotation_l/speed	/jointset/back/lumbar_extension/speed	/jointset/patellofemoral_l/patellar_flexion_l/speed	/jointset/knee_l/knee_flexion_l/speed	/jointset/knee_l/knee_adduction_l/speed	/jointset/knee_l/knee_rotation_l/speed	/jointset/ankle_l/ankle_angle_l/speed	/jointset/subtalar_l/subtalar_angle_l/speed	/forceset/tau_hip_flexion_l	/forceset/tau_hip_adduction_l	/forceset/tau_hip_rotation_l	/forceset/tau_knee_flexion_l	/forceset/tau_ankle_angle_l	/forceset/tau_subtalar_angle_l	/forceset/tau_lumbar_extension	lambda_cid13_p0	lambda_cid13_p1	lambda_cid13_p2	lambda_cid13_p3	lambda_cid13_p4	lambda_cid13_p5	lambda_cid14_p0	/jointset/ground_pelvis/pelvis_tilt/accel	/jointset/ground_pelvis/pelvis_tx/accel	/jointset/ground_pelvis/pelvis_ty/accel	/jointset/hip_l/hip_flexion_l/accel	/jointset/hip_l/hip_adduction_l/accel	/jointset/hip_l/hip_rotation_l/accel	/jointset/back/lumbar_extension/accel	/jointset/patellofemoral_l/patellar_flexion_l/accel	/jointset/knee_l/knee_flexion_l/accel	/jointset/knee_l/knee_adduction_l/accel	/jointset/knee_l/knee_rotation_l/accel	/jointset/ankle_l/ankle_angle_l/accel	/jointset/subtalar_l/subtalar_angle_l/accel	gamma_cid13_p0	gamma_cid13_p1	gamma_cid13_p2	gamma_cid13_p3	gamma_cid13_p4	gamma_cid13_p5	gamma_cid14_p0
0	-0.156811163736165	0.0573256782666212	0.8978875931778147	0.3774924667018715	-0.260726801816987	-0.2455588200898896	-0.01265067647494873	0.0322364824372147	0.03223648243721463	-0.1745327377676063	0.1483728941336834	-0.04231377076293093	-0.01117117105902406	0	0	0	0	0	0	0	0	0	0	0	0	0	0.1418867546176066	-0.07920638743270977	-0.04759613198475844	-0.3121718129130424	0.3370188196953072	-0.04128855835261418	-0.08416748228864547	66.8555271143296	1.728898837885201	4.458378580400242	-21.94868462702374	-589.0892607352921	-72.07598699763099	-38.2808796466099	-2.837454861078509	-1.521678581978739	-0.9861033898516353	11.1299770922867	-1.357994268614279	3.421282453927352	-5.584553417047123	10.81365578278014	10.81365578277787	0.03700262002383962	0.3533115681997266	2.739582585104532	-0.7512862109447298	-4.079924339424518e-08	5.03423665027046e-08	1.359191192840568e-07	4.446710588077226e-09	4.397685151855677e-08	-7.847860301674977e-08	-2.199716912711533e-08
0.01	-0.1569465943255391	0.05725048107407628	0.8978395088720024	0.3780342040841523	-0.2607940712654713	-0.2453882331085308	-0.01293026738297435	0.03276521361884813	0.03276521361884795	-0.174532267356721	0.1483870598549327	-0.04218060914162426	-0.01120898478527977	-0.02689422956009086	-0.01498356956659884	-0.009579411833848766	0.1078241872492653	-0.01335791469250617	0.03398043465688118	-0.05549584034206854	0.1052921314605405	0.1052921314605348	0.0001484880103663053	0.002809420955057629	0.02651944159055154	-0.007495393887143857	0.13440901701152	-0.08880058089096314	-0.04592491045199855	-0.3021969196851074	0.3204837415991558	-0.02587772867829759	-0.07832252048432556	62.07684951449704	-3.886975132880629	5.079176569751411	-19.30348089166146	-590.2618255475682	-82.82167687364367	-38.29647463970371	-2.586632467641515	-1.478314912672539	-0.9382338854875396	10.53013816305183	-1.310322526511398	3.365860714765821	-5.468748153330056	10.318880497205	10.31888049720557	0.01195966520171082	0.2411811113251094	2.591189996952329	-0.7385866511203011	-6.96175008625238e-08	9.998116423853423e-08	1.57751348307598e-07	3.270014048473988e-08	-9.901166740080401e-08	-4.70864645840575e-08	-2.548204004258117e-08
0.02	-0.1573452123033476	0.05702712443208927	0.8976967556867843	0.379638483063287	-0.2609920463522687	-0.2448819544319639	-0.01375214645652931	0.03433324384898961	0.03433324384898959	-0.1745286745110012	0.148428604536166	-0.04178564009422769	-0.01131973658511115	-0.05263747768686535	-0.02963188988008002	-0.01893377588113966	0.2125083193707461	-0.02614112766270866	0.06713833904165514	-0.1084576331058727	0.2078598097016408	0.2078598097016407	0.0006244869670938267	0.005475791996768389	0.05236148521797765	-0.01458761471513121	0.1269312794054343	-0.09839477434921638	-0.04425368891923779	-0.2922220264571722	0.3039486635030046	-0.01046689900398082	-0.07247755868000495	57.38540308496071	-9.520924159668755	5.706061539384911	-16.8766496915262	-590.1474138785275	-93.45366817201138	-38.34255364386325	-2.607258574415038	-1.454628731355207	-0.9410938325400615	10.5019660667298	-1.243053924152736	3.256776399505911	-5.077743901394448	10.26876513889209	10.26876513889209	0.1025048092974668	0.324701585530353	2.604102992479449	-0.6706515991134288	-9.843575833080241e-08	1.496199619743639e-07	1.795835773311393e-07	6.095357038140254e-08	-2.420001863201648e-07	-1.569432615136522e-08	-2.896691095804701e-08
0.03	-0.157996326604204	0.05665944317637844	0.8974613039719451	0.3822743938990051	-0.2613149977454627	-0.2440483506898033	-0.01509116209006281	0.03691360218901878	0.03691360218901877	-0.1745190919507953	0.1484963706726596	-0.0411350343676361	-0.01149932075994986	-0.07744294257493087	-0.0437982126484475	-0.028141125113852	0.3141415042185722	-0.03836553336973016	0.09942927442660766	-0.1589747278944114	0.3077542849479641	0.3077542849479636	0.001281780841102863	0.008073579267668876	0.07769558374769427	-0.0212669408865957	0.1220669825803182	-0.09234640482116491	-0.04362039321737289	-0.2882812768703369	0.3003036727085096	-0.01375160624577156	-0.06836078706027345	56.09644602918841	-8.0157453982145	5.634066985298024	-16.6398962959269	-590.3475281516269	-89.66042325198607	-38.4174994567713	-2.395832995143024	-1.381699452659509	-0.9082881504767291	9.914129516580363	-1.19962447381608	3.192258105631425	-4.983077411623043	9.781158521529985	9.781158521529992	0.04584788206326846	0.2267173925294534	2.48844540923454	-0.6572743133748179	-1.255608111670658e-07	1.495076229800381e-07	2.238009017405148e-07	8.583507082437927e-08	-3.68760386866444e-07	-2.518124418906826e-08	-3.737700635954432e-08
0.04	-0.1588912240637691	0.05615328561236754	0.8971342322284107	0.3859106635477558	-0.2617576913116947	-0.2428964363942648	-0.01692422570028951	0.0404791792423167	0.04047917924231672	-0.1745032352107273	0.148589994700794	-0.04023301123054399	-0.01174383843394558	-0.1013941094286254	-0.05732715154009391	-0.03725778162016104	0.4125800819772528	-0.05008956227031616	0.1308004497172203	-0.2072672284445128	0.4049035523553883	0.4049035523553883	0.001879322939538772	0.0106473703249512	0.1026449673180818	-0.02757431454653454	0.1172026857552024	-0.08629803529311346	-0.04298709751550795	-0.2843405272835015	0.2966586819140143	-0.01703631348756236	-0.06424401544054141	54.88878191739152	-6.523595806525416	5.562777541172406	-16.61199968725196	-589.3691894584323	-85.75336209879426	-38.51944941291989	-2.436398967540867	-1.327151956011014	-0.9229552872594035	9.863044648900724	-1.142978562865636	3.072824380637937	-4.632825053706997	9.719723571112223	9.719723571112205	0.09055445418284115	0.3199023428066773	2.527160000613639	-0.596261096808297	-1.526509525676176e-07	1.483694873521009e-07	2.684797745083612e-07	1.106470469487233e-07	-4.951859829101855e-07	-3.55110293704908e-08	-4.588865278137217e-08
0.05	-0.1600215463138528	0.05551459731855515	0.8967161823304246	0.3905164817238386	-0.2623149094974173	-0.2414354018202697	-0.0192288819497903	0.04500302388181621	0.04500302388181621	-0.1744814990886689	0.1487093730992507	-0.03908378036773504	-0.01204948649163053	-0.124508148162221	-0.07034457683866296	-0.04635590713616501	0.5080900836846487	-0.06124992116579202	0.1612624260429819	-0.2533105516966992	0.4994044685970871	0.4994044685970869	0.00246966521322734	0.01321200938722773	0.127082749045142	-0.03348926997422218	0.1103232723654673	-0.08365168605553422	-0.04177878483447948	-0.2773084102768464	0.2864990146123885	-0.01485171313440399	-0.05884889001613024	51.76581061202614	-6.990510403966391	5.711406215090396	-14.9452895770793	-588.5679537043211	-85.60401546886112	-38.64600248000828	-2.224585101607786	-1.279125929308192	-0.903897616451998	9.320939597051883	-1.086976077430894	3.011239142253338	-4.537065497134681	9.246148855095948	9.246148855095937	0.04358910641333032	0.2222621217896049	2.384308394650325	-0.5792610365387126	-1.692377473458843e-07	1.561037182079572e-07	2.953695880590072e-07	1.264079152090512e-07	-5.734032850910381e-07	-3.443414804416794e-08	-5.040846193016813e-08
0.06	-0.1613781447063402	0.0547477171492514	0.8962070198907421	0.3960625922500741	-0.2629806135770031	-0.2396740765062753	-0.02198336733904498	0.05045805232461216	0.05045805232461217	-0.1744537965453833	0.1488539013751004	-0.03769372746047586	-0.0124123137577503	-0.1466493379093709	-0.08296552663836383	-0.05548028995941372	0.6006385520077584	-0.07178674104296121	0.1908585977170663	-0.2972330563952937	0.5911403130146752	0.591140313014675	0.003072607184974455	0.01567734580356282	0.1508093762081268	-0.03901015623349838	0.1034438589757328	-0.08100533681795491	-0.04057047215345096	-0.270276293270191	0.2763393473107626	-0.01266711278124557	-0.05345376459171854	48.71482873528441	-7.469150432745957	5.860902663659806	-13.47018964601991	-586.716821779318	-85.3545139016816	-38.79459734692892	-2.241829170251722	-1.247856856237374	-0.9282067487083516	9.270737972043465	-1.018270759204301	2.899663450302521	-4.208661342988544	9.16670920629007	9.166709206290085	0.09307439379454108	0.3000418136183884	2.384929087798555	-0.5174472631260079	-1.853822959505811e-07	1.642115223894469e-07	3.215103885899816e-07	1.417876841908943e-07	-6.495907643724006e-07	-3.287698602278212e-08	-5.476019372009958e-08
0.07000000000000001	-0.1629519373643596	0.05385673895169469	0.8956062767717765	0.4025203448808395	-0.2637483888456995	-0.237621210102559	-0.02516627133815147	0.0568172245021175	0.05681722450211754	-0.1744197904659525	0.1490228781746403	-0.03606957839677585	-0.01282814133619219	-0.1679666806884017	-0.09514791795260093	-0.06468445959282858	0.6904229032384561	-0.08164923645503765	0.2195689204614149	-0.3390189415013807	0.6802255732670183	0.680225573267018	0.003735666494598832	0.01810061734614968	0.1739159478021083	-0.04407379988432563	0.09728762519648203	-0.07772289625713479	-0.03965024150879055	-0.2655262314008399	0.2694468423292817	-0.01187251795168218	-0.04852556925516522	46.63330125626881	-7.516162379308536	5.944218348294077	-12.64873592833466	-585.3398981993703	-84.29664561783636	-38.96222098340284	-2.055317271241266	-1.191072486998757	-0.9190717761667971	8.758902277967987	-0.9524140964143074	2.834804620940226	-4.114231805727161	8.709163056586927	8.709163056586899	0.05403707518707402	0.2108137860738928	2.257835433218103	-0.4886494807622968	-1.946187208620436e-07	1.559088789140074e-07	3.401790787294106e-07	1.523368761753685e-07	-6.981109583909196e-07	-3.764305581019976e-08	-5.794008693934656e-08
0.08	-0.1647346295380719	0.05284640839739923	0.8949129820153753	0.409861264739789	-0.2646112241013577	-0.2352856228845115	-0.0287571701305805	0.06405319500652237	0.06405319500652241	-0.1743789307182974	0.1492155564819049	-0.03421750076953197	-0.0132921706640826	-0.1884292410479326	-0.1068359979861125	-0.07399061744659363	0.7772719976445576	-0.09079873843531384	0.2474027605833313	-0.3788320150598035	0.7664999783945818	0.7664999783945817	0.004443340829850881	0.02041764734854167	0.1963950889168962	-0.04865050612320145	0.09113139141723153	-0.07444045569631465	-0.03873001086413019	-0.2607761695314888	0.2625543373478008	-0.01107792312211877	-0.04359737391861195	44.61566463145939	-7.572049815970241	6.026310920090377	-12.0005324998907	-583.0376972253168	-83.147511350947	-39.14572784617749	-2.070872686351734	-1.148994600092276	-0.9486043927783919	8.683686607124313	-0.8756720728442559	2.724366925816069	-3.814099033455718	8.604538181334213	8.604538181334334	0.101997398920075	0.2787935055796963	2.25944299195986	-0.4200597807357215	-2.034094603739427e-07	1.465474968800565e-07	3.583656972306753e-07	1.625744180309802e-07	-7.448461662634485e-07	-4.281707603689504e-08	-6.104437767016228e-08
0.09	-0.1667180868034571	0.0517215989980185	0.8941259225510237	0.4180570833547401	-0.2655620111918097	-0.23267616376531	-0.03273607580255478	0.07213876339084296	0.07213876339084299	-0.1743308177111001	0.1494312636787027	-0.03214353410991034	-0.01379951564945677	-0.208115735033748	-0.1180472104461655	-0.0834485465322708	0.8614171136784606	-0.0992409691659661	0.274347461022093	-0.4166394804718699	0.8501622370843548	0.8501622370843552	0.005172433187175008	0.02270834677069757	0.2182915382325163	-0.05274020135010784	0.08461453590490788	-0.07130999996133644	-0.03776771827281483	-0.2561246653715114	0.2552605619429906	-0.009819484525847019	-0.03843075032157588	42.4561069648874	-7.794563378023881	6.123576317798593	-11.13521784431295	-581.1256849529735	-82.28671207684462	-39.34166666001599	-1.895572450984396	-1.095351172040027	-0.9486275572958371	8.208710751935762	-0.8108769715874957	2.658226700632011	-3.717624465606679	8.179362764066623	8.179362764066697	0.05739737922707071	0.2018368511946997	2.138726562315604	-0.3917424904867637	-2.029652543187231e-07	1.210720781396699e-07	3.645925678610936e-07	1.649270276691809e-07	-7.605351987046497e-07	-4.988873063334374e-08	-6.248383848740981e-08
